{
  "accessors": [
    {
      "bufferView": 2,
      "componentType": 5126,
      "count": 4843,
      "max": [
        2.4719460010528564,
        3.572563886642456,
        1.0553430318832397
      ],
      "min": [
        -2.508639097213745,
        -5.4408040046691895,
        -0.3596459925174713
      ],
      "type": "VEC3"
    },
    {
      "bufferView": 2,
      "byteOffset": 58116,
      "componentType": 5126,
      "count": 4843,
      "max": [
        1.0,
        1.0,
        1.0
      ],
      "min": [
        -1.0,
        -1.0,
        -1.0
      ],
      "type": "VEC3"
    },
    {
      "bufferView": 1,
      "componentType": 5126,
      "count": 4843,
      "max": [
        0.9970700144767761,
        0.9981989860534668
      ],
      "min": [
        0.0017890000017359853,
        0.004395000170916319
      ],
      "type": "VEC2"
    },
    {
      "bufferView": 0,
      "componentType": 5125,
      "count": 8139,
      "type": "SCALAR"
    },
    {
      "bufferView": 2,
      "byteOffset": 116232,
      "componentType": 5126,
      "count": 3,
      "max": [
        1.7418229579925537,
        2.8877310752868652,
        -0.4224329888820648
      ],
      "min": [
        1.7413899898529053,
        2.8876559734344482,
        -0.5246469974517822
      ],
      "type": "VEC3"
    },
    {
      "bufferView": 2,
      "byteOffset": 116268,
      "componentType": 5126,
      "count": 3,
      "max": [
        0.0,
        -0.9999997615814209,
        -0.0006999998004175723
      ],
      "min": [
        0.0,
        -0.9999997615814209,
        -0.0006999998004175723
      ],
      "type": "VEC3"
    },
    {
      "bufferView": 1,
      "byteOffset": 38744,
      "componentType": 5126,
      "count": 3,
      "max": [
        0.13529999554157257,
        0.9054999947547913
      ],
      "min": [
        0.11330000311136246,
        0.8659999966621399
      ],
      "type": "VEC2"
    },
    {
      "bufferView": 0,
      "byteOffset": 32556,
      "componentType": 5125,
      "count": 3,
      "type": "SCALAR"
    },
    {
      "bufferView": 2,
      "byteOffset": 116304,
      "componentType": 5126,
      "count": 2761,
      "max": [
        1.7724130153656006,
        4.00225305557251,
        0.6299790143966675
      ],
      "min": [
        -1.8065249919891357,
        -4.258325099945068,
        -0.4601680040359497
      ],
      "type": "VEC3"
    },
    {
      "bufferView": 2,
      "byteOffset": 149436,
      "componentType": 5126,
      "count": 2761,
      "max": [
        1.0,
        1.0,
        1.0
      ],
      "min": [
        -1.0,
        -1.0,
        -1.0
      ],
      "type": "VEC3"
    },
    {
      "bufferView": 1,
      "byteOffset": 38768,
      "componentType": 5126,
      "count": 2761,
      "max": [
        0.996550977230072,
        0.9957950115203857
      ],
      "min": [
        0.003350999904796481,
        0.0030129998922348022
      ],
      "type": "VEC2"
    },
    {
      "bufferView": 0,
      "byteOffset": 32568,
      "componentType": 5125,
      "count": 7008,
      "type": "SCALAR"
    },
    {
      "bufferView": 2,
      "byteOffset": 182568,
      "componentType": 5126,
      "count": 1584,
      "max": [
        0.4874210059642792,
        8.337868690490723,
        1.9724409580230713
      ],
      "min": [
        -0.4119360148906708,
        1.2068870067596436,
        1.2086280584335327
      ],
      "type": "VEC3"
    },
    {
      "bufferView": 2,
      "byteOffset": 201576,
      "componentType": 5126,
      "count": 1584,
      "max": [
        1.0,
        1.0,
        1.0
      ],
      "min": [
        -1.0,
        -1.0,
        -1.0
      ],
      "type": "VEC3"
    },
    {
      "bufferView": 1,
      "byteOffset": 60856,
      "componentType": 5126,
      "count": 1584,
      "max": [
        0.9960939884185791,
        0.996425986289978
      ],
      "min": [
        0.00304200011305511,
        0.0019529999699443579
      ],
      "type": "VEC2"
    },
    {
      "bufferView": 0,
      "byteOffset": 60600,
      "componentType": 5125,
      "count": 4209,
      "type": "SCALAR"
    },
    {
      "bufferView": 2,
      "byteOffset": 220584,
      "componentType": 5126,
      "count": 16134,
      "max": [
        2.3867859840393066,
        1.716562032699585,
        3.2098090648651123
      ],
      "min": [
        -2.37186598777771,
        -3.801532030105591,
        1.0772520303726196
      ],
      "type": "VEC3"
    },
    {
      "bufferView": 2,
      "byteOffset": 414192,
      "componentType": 5126,
      "count": 16134,
      "max": [
        1.0,
        1.0,
        1.0
      ],
      "min": [
        -1.0,
        -1.0,
        -1.0
      ],
      "type": "VEC3"
    },
    {
      "bufferView": 1,
      "byteOffset": 73528,
      "componentType": 5126,
      "count": 16134,
      "max": [
        0.9975590109825134,
        0.9963039755821228
      ],
      "min": [
        0.0012100000167265534,
        0.005371000152081251
      ],
      "type": "VEC2"
    },
    {
      "bufferView": 0,
      "byteOffset": 77436,
      "componentType": 5125,
      "count": 33750,
      "type": "SCALAR"
    },
    {
      "bufferView": 2,
      "byteOffset": 607800,
      "componentType": 5126,
      "count": 1263,
      "max": [
        1.022286057472229,
        -1.113415002822876,
        3.1638259887695313
      ],
      "min": [
        0.40422898530960083,
        -2.5970349311828613,
        2.2594690322875977
      ],
      "type": "VEC3"
    },
    {
      "bufferView": 2,
      "byteOffset": 622956,
      "componentType": 5126,
      "count": 1263,
      "max": [
        1.0,
        1.0,
        1.0
      ],
      "min": [
        -1.0,
        -1.0,
        -1.0
      ],
      "type": "VEC3"
    },
    {
      "bufferView": 1,
      "byteOffset": 202600,
      "componentType": 5126,
      "count": 1263,
      "max": [
        0.9951170086860657,
        0.9914550185203552
      ],
      "min": [
        0.005568999797105789,
        0.0078119998797774315
      ],
      "type": "VEC2"
    },
    {
      "bufferView": 0,
      "byteOffset": 212436,
      "componentType": 5125,
      "count": 2460,
      "type": "SCALAR"
    },
    {
      "bufferView": 2,
      "byteOffset": 638112,
      "componentType": 5126,
      "count": 237,
      "max": [
        1.610111951828003,
        2.5913660526275635,
        2.6778340339660645
      ],
      "min": [
        -1.48533296585083,
        -2.11891508102417,
        0.9949210286140442
      ],
      "type": "VEC3"
    },
    {
      "bufferView": 2,
      "byteOffset": 640956,
      "componentType": 5126,
      "count": 237,
      "max": [
        0.9700740575790405,
        1.0,
        0.4428863823413849
      ],
      "min": [
        -0.9995521903038025,
        -1.0,
        -0.4429260790348053
      ],
      "type": "VEC3"
    },
    {
      "bufferView": 1,
      "byteOffset": 212704,
      "componentType": 5126,
      "count": 237,
      "max": [
        0.7763670086860657,
        0.34130901098251343
      ],
      "min": [
        0.04898099973797798,
        0.01269499957561493
      ],
      "type": "VEC2"
    },
    {
      "bufferView": 0,
      "byteOffset": 222276,
      "componentType": 5125,
      "count": 552,
      "type": "SCALAR"
    },
    {
      "bufferView": 2,
      "byteOffset": 643800,
      "componentType": 5126,
      "count": 4423,
      "max": [
        1.4074430465698242,
        4.284492015838623,
        0.9597839713096619
      ],
      "min": [
        -1.426071047782898,
        2.218256950378418,
        -0.3537349998950958
      ],
      "type": "VEC3"
    },
    {
      "bufferView": 2,
      "byteOffset": 696876,
      "componentType": 5126,
      "count": 4423,
      "max": [
        1.0,
        1.0,
        0.9994685053825378
      ],
      "min": [
        -1.0,
        -1.0,
        -0.9975449442863464
      ],
      "type": "VEC3"
    },
    {
      "bufferView": 1,
      "byteOffset": 214600,
      "componentType": 5126,
      "count": 4423,
      "max": [
        0.9956049919128418,
        0.9994469881057739
      ],
      "min": [
        0.19763199985027313,
        0.36914101243019104
      ],
      "type": "VEC2"
    },
    {
      "bufferView": 0,
      "byteOffset": 224484,
      "componentType": 5125,
      "count": 9156,
      "type": "SCALAR"
    },
    {
      "bufferView": 2,
      "byteOffset": 749952,
      "componentType": 5126,
      "count": 9544,
      "max": [
        2.446568012237549,
        2.3021490573883057,
        2.1548099517822266
      ],
      "min": [
        -2.4526290893554688,
        -4.095207214355469,
        1.2406200170516968
      ],
      "type": "VEC3"
    },
    {
      "bufferView": 2,
      "byteOffset": 864480,
      "componentType": 5126,
      "count": 9544,
      "max": [
        1.0,
        1.0,
        1.0
      ],
      "min": [
        -1.0,
        -1.0,
        -1.0
      ],
      "type": "VEC3"
    },
    {
      "bufferView": 1,
      "byteOffset": 249984,
      "componentType": 5126,
      "count": 9544,
      "max": [
        0.9970700144767761,
        0.9967309832572937
      ],
      "min": [
        0.0030519999563694,
        0.005859000142663717
      ],
      "type": "VEC2"
    },
    {
      "bufferView": 0,
      "byteOffset": 261108,
      "componentType": 5125,
      "count": 17400,
      "type": "SCALAR"
    },
    {
      "bufferView": 2,
      "byteOffset": 979008,
      "componentType": 5126,
      "count": 9752,
      "max": [
        2.1546900272369385,
        4.190309047698975,
        0.7436220049858093
      ],
      "min": [
        -2.1958820819854736,
        -4.351820945739746,
        -0.9408199787139893
      ],
      "type": "VEC3"
    },
    {
      "bufferView": 2,
      "byteOffset": 1096032,
      "componentType": 5126,
      "count": 9752,
      "max": [
        1.0,
        0.9999935626983643,
        1.0
      ],
      "min": [
        -1.0,
        -0.9999663829803467,
        -1.0
      ],
      "type": "VEC3"
    },
    {
      "bufferView": 1,
      "byteOffset": 326336,
      "componentType": 5126,
      "count": 9752,
      "max": [
        0.9972289800643921,
        26.262685775756836
      ],
      "min": [
        0.3148829936981201,
        -0.8897050023078918
      ],
      "type": "VEC2"
    },
    {
      "bufferView": 0,
      "byteOffset": 330708,
      "componentType": 5125,
      "count": 28944,
      "type": "SCALAR"
    },
    {
      "bufferView": 2,
      "byteOffset": 1213056,
      "componentType": 5126,
      "count": 9774,
      "max": [
        2.1546900272369385,
        4.190309047698975,
        0.7436220049858093
      ],
      "min": [
        -2.1958820819854736,
        -4.351820945739746,
        -0.9408199787139893
      ],
      "type": "VEC3"
    },
    {
      "bufferView": 2,
      "byteOffset": 1330344,
      "componentType": 5126,
      "count": 9774,
      "max": [
        1.0,
        0.9999935626983643,
        1.0
      ],
      "min": [
        -1.0,
        -0.9999663829803467,
        -1.0
      ],
      "type": "VEC3"
    },
    {
      "bufferView": 1,
      "byteOffset": 404352,
      "componentType": 5126,
      "count": 9774,
      "max": [
        0.9972289800643921,
        26.57268524169922
      ],
      "min": [
        0.3148829936981201,
        -1.1697050333023071
      ],
      "type": "VEC2"
    },
    {
      "bufferView": 0,
      "byteOffset": 446484,
      "componentType": 5125,
      "count": 28944,
      "type": "SCALAR"
    },
    {
      "bufferView": 2,
      "byteOffset": 1447632,
      "componentType": 5126,
      "count": 9774,
      "max": [
        2.1546900272369385,
        4.190309047698975,
        0.7436220049858093
      ],
      "min": [
        -2.1958820819854736,
        -4.351820945739746,
        -0.9408199787139893
      ],
      "type": "VEC3"
    },
    {
      "bufferView": 2,
      "byteOffset": 1564920,
      "componentType": 5126,
      "count": 9774,
      "max": [
        1.0,
        0.9999935626983643,
        1.0
      ],
      "min": [
        -1.0,
        -0.9999663829803467,
        -1.0
      ],
      "type": "VEC3"
    },
    {
      "bufferView": 1,
      "byteOffset": 482544,
      "componentType": 5126,
      "count": 9774,
      "max": [
        0.9972289800643921,
        25.352685928344727
      ],
      "min": [
        0.3148829936981201,
        -0.29970499873161316
      ],
      "type": "VEC2"
    },
    {
      "bufferView": 0,
      "byteOffset": 562260,
      "componentType": 5125,
      "count": 28944,
      "type": "SCALAR"
    },
    {
      "bufferView": 2,
      "byteOffset": 1682208,
      "componentType": 5126,
      "count": 9774,
      "max": [
        2.1546900272369385,
        4.190309047698975,
        0.7436220049858093
      ],
      "min": [
        -2.1958820819854736,
        -4.351820945739746,
        -0.9408199787139893
      ],
      "type": "VEC3"
    },
    {
      "bufferView": 2,
      "byteOffset": 1799496,
      "componentType": 5126,
      "count": 9774,
      "max": [
        1.0,
        0.9999935626983643,
        1.0
      ],
      "min": [
        -1.0,
        -0.9999663829803467,
        -1.0
      ],
      "type": "VEC3"
    },
    {
      "bufferView": 1,
      "byteOffset": 560736,
      "componentType": 5126,
      "count": 9774,
      "max": [
        0.9972289800643921,
        25.91268539428711
      ],
      "min": [
        0.3148829936981201,
        0.5602949857711792
      ],
      "type": "VEC2"
    },
    {
      "bufferView": 0,
      "byteOffset": 678036,
      "componentType": 5125,
      "count": 28944,
      "type": "SCALAR"
    },
    {
      "bufferView": 2,
      "byteOffset": 1916784,
      "componentType": 5126,
      "count": 9666,
      "max": [
        2.367432117462158,
        4.497282981872559,
        1.3127909898757935
      ],
      "min": [
        -2.3860599994659424,
        -5.561649799346924,
        -0.29955199360847473
      ],
      "type": "VEC3"
    },
    {
      "bufferView": 2,
      "byteOffset": 2032776,
      "componentType": 5126,
      "count": 9666,
      "max": [
        1.0,
        1.0,
        1.0
      ],
      "min": [
        -1.0,
        -1.0,
        -1.0
      ],
      "type": "VEC3"
    },
    {
      "bufferView": 1,
      "byteOffset": 638928,
      "componentType": 5126,
      "count": 9666,
      "max": [
        0.9960939884185791,
        0.9934309720993042
      ],
      "min": [
        -0.9941409826278687,
        0.006347999908030033
      ],
      "type": "VEC2"
    },
    {
      "bufferView": 0,
      "byteOffset": 793812,
      "componentType": 5125,
      "count": 18600,
      "type": "SCALAR"
    },
    {
      "bufferView": 2,
      "byteOffset": 2148768,
      "componentType": 5126,
      "count": 7268,
      "max": [
        2.1715939044952393,
        4.135605812072754,
        0.6772549748420715
      ],
      "min": [
        -2.203239917755127,
        -4.3173980712890625,
        -0.8656859993934631
      ],
      "type": "VEC3"
    },
    {
      "bufferView": 2,
      "byteOffset": 2235984,
      "componentType": 5126,
      "count": 7268,
      "max": [
        1.0,
        1.0,
        1.0
      ],
      "min": [
        -1.0,
        -1.0,
        -1.0
      ],
      "type": "VEC3"
    },
    {
      "bufferView": 1,
      "byteOffset": 716256,
      "componentType": 5126,
      "count": 7268,
      "max": [
        0.9965819716453552,
        0.974166989326477
      ],
      "min": [
        0.00392200006172061,
        0.005859000142663717
      ],
      "type": "VEC2"
    },
    {
      "bufferView": 0,
      "byteOffset": 868212,
      "componentType": 5125,
      "count": 19020,
      "type": "SCALAR"
    }
  ],
  "asset": {
    "extras": {
      "author": "Muhamad Mirza Arrafi (https://sketchfab.com/nazidefenseforceofficial)",
      "license": "CC-BY-4.0 (http://creativecommons.org/licenses/by/4.0/)",
      "source": "https://sketchfab.com/3d-models/t-90sm-main-battle-tank-35968fbefd9a4188a18ca9163ea3e175",
      "title": "T-90SM Main Battle Tank"
    },
    "generator": "Sketchfab-16.65.0",
    "version": "2.0"
  },
  "bufferViews": [
    {
      "buffer": 0,
      "byteLength": 944292,
      "name": "floatBufferViews",
      "target": 34963
    },
    {
      "buffer": 0,
      "byteLength": 774400,
      "byteOffset": 944292,
      "byteStride": 8,
      "name": "floatBufferViews",
      "target": 34962
    },
    {
      "buffer": 0,
      "byteLength": 2323200,
      "byteOffset": 1718692,
      "byteStride": 12,
      "name": "floatBufferViews",
      "target": 34962
    }
  ],
  "buffers": [
    {
      "byteLength": 4041892,
      "uri": "scene.bin"
    }
  ],
  "images": [
    {
      "uri": "textures/bronya.0_baseColor.png"
    },
    {
      "uri": "textures/chasis.0_baseColor.png"
    },
    {
      "uri": "textures/chasis.1_baseColor.png"
    },
    {
      "uri": "textures/chasis.2_baseColor.png"
    },
    {
      "uri": "textures/details.0_baseColor.png"
    },
    {
      "uri": "textures/misc_a.3_baseColor.png"
    },
    {
      "uri": "textures/misc_a.4_baseColor.png"
    },
    {
      "uri": "textures/misc_b.0_baseColor.png"
    },
    {
      "uri": "textures/track_1.0_baseColor.png"
    }
  ],
  "materials": [
    {
      "doubleSided": true,
      "name": "bronya.0",
      "pbrMetallicRoughness": {
        "baseColorTexture": {
          "index": 0
        },
        "metallicFactor": 0.0,
        "roughnessFactor": 0.4
      }
    },
    {
      "doubleSided": true,
      "name": "chasis.0",
      "pbrMetallicRoughness": {
        "baseColorTexture": {
          "index": 1
        },
        "metallicFactor": 0.0,
        "roughnessFactor": 0.4
      }
    },
    {
      "doubleSided": true,
      "name": "chasis.1",
      "pbrMetallicRoughness": {
        "baseColorTexture": {
          "index": 2
        },
        "metallicFactor": 0.0,
        "roughnessFactor": 0.4
      }
    },
    {
      "doubleSided": true,
      "name": "chasis.2",
      "pbrMetallicRoughness": {
        "baseColorTexture": {
          "index": 3
        },
        "metallicFactor": 0.5,
        "roughnessFactor": 0.0
      }
    },
    {
      "doubleSided": true,
      "name": "details.0",
      "pbrMetallicRoughness": {
        "baseColorTexture": {
          "index": 4
        },
        "metallicFactor": 0.0,
        "roughnessFactor": 0.6
      }
    },
    {
      "doubleSided": true,
      "name": "details.1",
      "pbrMetallicRoughness": {
        "baseColorTexture": {
          "index": 4
        },
        "metallicFactor": 0.0,
        "roughnessFactor": 0.6
      }
    },
    {
      "doubleSided": true,
      "name": "misc_a.3",
      "pbrMetallicRoughness": {
        "baseColorTexture": {
          "index": 5
        },
        "metallicFactor": 0.0,
        "roughnessFactor": 0.4
      }
    },
    {
      "doubleSided": true,
      "name": "misc_a.4",
      "pbrMetallicRoughness": {
        "baseColorTexture": {
          "index": 6
        },
        "metallicFactor": 0.0,
        "roughnessFactor": 0.4
      }
    },
    {
      "doubleSided": true,
      "name": "misc_b.0",
      "pbrMetallicRoughness": {
        "baseColorTexture": {
          "index": 7
        },
        "metallicFactor": 0.0,
        "roughnessFactor": 0.6
      }
    },
    {
      "doubleSided": true,
      "name": "track_1.0",
      "pbrMetallicRoughness": {
        "baseColorTexture": {
          "index": 8
        },
        "metallicFactor": 0.0,
        "roughnessFactor": 0.6
      }
    },
    {
      "doubleSided": true,
      "name": "wheel.0",
      "pbrMetallicRoughness": {
        "metallicFactor": 0.0,
        "roughnessFactor": 0.6
      }
    }
  ],
  "meshes": [
    {
      "name": "Object_0",
      "primitives": [
        {
          "attributes": {
            "NORMAL": 1,
            "POSITION": 0,
            "TEXCOORD_0": 2
          },
          "indices": 3,
          "material": 2,
          "mode": 4
        }
      ]
    },
    {
      "name": "Object_1",
      "primitives": [
        {
          "attributes": {
            "NORMAL": 5,
            "POSITION": 4,
            "TEXCOORD_0": 6
          },
          "indices": 7,
          "material": 10,
          "mode": 4
        }
      ]
    },
    {
      "name": "Object_2",
      "primitives": [
        {
          "attributes": {
            "NORMAL": 9,
            "POSITION": 8,
            "TEXCOORD_0": 10
          },
          "indices": 11,
          "material": 4,
          "mode": 4
        }
      ]
    },
    {
      "name": "Object_3",
      "primitives": [
        {
          "attributes": {
            "NORMAL": 13,
            "POSITION": 12,
            "TEXCOORD_0": 14
          },
          "indices": 15,
          "material": 8,
          "mode": 4
        }
      ]
    },
    {
      "name": "Object_4",
      "primitives": [
        {
          "attributes": {
            "NORMAL": 17,
            "POSITION": 16,
            "TEXCOORD_0": 18
          },
          "indices": 19,
          "material": 6,
          "mode": 4
        }
      ]
    },
    {
      "name": "Object_5",
      "primitives": [
        {
          "attributes": {
            "NORMAL": 21,
            "POSITION": 20,
            "TEXCOORD_0": 22
          },
          "indices": 23,
          "material": 7,
          "mode": 4
        }
      ]
    },
    {
      "name": "Object_6",
      "primitives": [
        {
          "attributes": {
            "NORMAL": 25,
            "POSITION": 24,
            "TEXCOORD_0": 26
          },
          "indices": 27,
          "material": 3,
          "mode": 4
        }
      ]
    },
    {
      "name": "Object_7",
      "primitives": [
        {
          "attributes": {
            "NORMAL": 29,
            "POSITION": 28,
            "TEXCOORD_0": 30
          },
          "indices": 31,
          "material": 0,
          "mode": 4
        }
      ]
    },
    {
      "name": "Object_8",
      "primitives": [
        {
          "attributes": {
            "NORMAL": 33,
            "POSITION": 32,
            "TEXCOORD_0": 34
          },
          "indices": 35,
          "material": 0,
          "mode": 4
        }
      ]
    },
    {
      "name": "Object_9",
      "primitives": [
        {
          "attributes": {
            "NORMAL": 37,
            "POSITION": 36,
            "TEXCOORD_0": 38
          },
          "indices": 39,
          "material": 9,
          "mode": 4
        }
      ]
    },
    {
      "name": "Object_10",
      "primitives": [
        {
          "attributes": {
            "NORMAL": 41,
            "POSITION": 40,
            "TEXCOORD_0": 42
          },
          "indices": 43,
          "material": 9,
          "mode": 4
        }
      ]
    },
    {
      "name": "Object_11",
      "primitives": [
        {
          "attributes": {
            "NORMAL": 45,
            "POSITION": 44,
            "TEXCOORD_0": 46
          },
          "indices": 47,
          "material": 9,
          "mode": 4
        }
      ]
    },
    {
      "name": "Object_12",
      "primitives": [
        {
          "attributes": {
            "NORMAL": 49,
            "POSITION": 48,
            "TEXCOORD_0": 50
          },
          "indices": 51,
          "material": 9,
          "mode": 4
        }
      ]
    },
    {
      "name": "Object_13",
      "primitives": [
        {
          "attributes": {
            "NORMAL": 53,
            "POSITION": 52,
            "TEXCOORD_0": 54
          },
          "indices": 55,
          "material": 1,
          "mode": 4
        }
      ]
    },
    {
      "name": "Object_14",
      "primitives": [
        {
          "attributes": {
            "NORMAL": 57,
            "POSITION": 56,
            "TEXCOORD_0": 58
          },
          "indices": 59,
          "material": 5,
          "mode": 4
        }
      ]
    }
  ],
  "nodes": [
    {
      "children": [
        1
      ],
      "matrix": [
        1.0,
        0.0,
        0.0,
        0.0,
        0.0,
        2.220446049250313e-16,
        -1.0,
        0.0,
        0.0,
        1.0,
        2.220446049250313e-16,
        0.0,
        0.0,
        0.0,
        0.0,
        1.0
      ],
      "name": "Sketchfab_model"
    },
    {
      "children": [
        2,
        3,
        4,
        5,
        6,
        7,
        8,
        9,
        10,
        11,
        12,
        13,
        14,
        15,
        16
      ],
      "name": "T-90SM Main Battle Tank.obj.cleaner.materialmerger.gles"
    },
    {
      "mesh": 0,
      "name": "Object_2"
    },
    {
      "mesh": 1,
      "name": "Object_3"
    },
    {
      "mesh": 2,
      "name": "Object_4"
    },
    {
      "mesh": 3,
      "name": "Object_5"
    },
    {
      "mesh": 4,
      "name": "Object_6"
    },
    {
      "mesh": 5,
      "name": "Object_7"
    },
    {
      "mesh": 6,
      "name": "Object_8"
    },
    {
      "mesh": 7,
      "name": "Object_9"
    },
    {
      "mesh": 8,
      "name": "Object_10"
    },
    {
      "mesh": 9,
      "name": "Object_11"
    },
    {
      "mesh": 10,
      "name": "Object_12"
    },
    {
      "mesh": 11,
      "name": "Object_13"
    },
    {
      "mesh": 12,
      "name": "Object_14"
    },
    {
      "mesh": 13,
      "name": "Object_15"
    },
    {
      "mesh": 14,
      "name": "Object_16"
    }
  ],
  "samplers": [
    {
      "magFilter": 9729,
      "minFilter": 9987,
      "wrapS": 10497,
      "wrapT": 10497
    }
  ],
  "scene": 0,
  "scenes": [
    {
      "name": "Sketchfab_Scene",
      "nodes": [
        0
      ]
    }
  ],
  "textures": [
    {
      "sampler": 0,
      "source": 0
    },
    {
      "sampler": 0,
      "source": 1
    },
    {
      "sampler": 0,
      "source": 2
    },
    {
      "sampler": 0,
      "source": 3
    },
    {
      "sampler": 0,
      "source": 4
    },
    {
      "sampler": 0,
      "source": 5
    },
    {
      "sampler": 0,
      "source": 6
    },
    {
      "sampler": 0,
      "source": 7
    },
    {
      "sampler": 0,
      "source": 8
    }
  ]
}
