{
  "accessors": [
    {
      "bufferView": 2,
      "componentType": 5126,
      "count": 4550,
      "max": [
        2.5580999851226807,
        5.118500232696533,
        5.172100067138672
      ],
      "min": [
        -13.706299781799316,
        -5.118500232696533,
        -0.04699999839067459
      ],
      "type": "VEC3"
    },
    {
      "bufferView": 2,
      "byteOffset": 54600,
      "componentType": 5126,
      "count": 4550,
      "max": [
        1.0,
        1.0,
        1.0
      ],
      "min": [
        -1.0,
        -1.0,
        -1.0
      ],
      "type": "VEC3"
    },
    {
      "bufferView": 1,
      "componentType": 5126,
      "count": 4550,
      "max": [
        0.9980000257492065,
        0.9983999729156494
      ],
      "min": [
        0.003700000001117587,
        0.001500000013038516
      ],
      "type": "VEC2"
    },
    {
      "bufferView": 0,
      "componentType": 5125,
      "count": 9999,
      "type": "SCALAR"
    },
    {
      "bufferView": 2,
      "byteOffset": 109200,
      "componentType": 5126,
      "count": 140,
      "max": [
        -2.7435998916625977,
        4.184100151062012,
        2.5239999294281006
      ],
      "min": [
        -13.492899894714355,
        -4.122099876403809,
        0.1216999962925911
      ],
      "type": "VEC3"
    },
    {
      "bufferView": 2,
      "byteOffset": 110880,
      "componentType": 5126,
      "count": 140,
      "max": [
        1.0,
        0.8107293844223022,
        1.0
      ],
      "min": [
        -1.0,
        -0.866019070148468,
        -0.6660257577896118
      ],
      "type": "VEC3"
    },
    {
      "bufferView": 1,
      "byteOffset": 36400,
      "componentType": 5126,
      "count": 140,
      "max": [
        0.9258000254631042,
        0.4595000147819519
      ],
      "min": [
        0.003700000001117587,
        0.015599999576807022
      ],
      "type": "VEC2"
    },
    {
      "bufferView": 0,
      "byteOffset": 39996,
      "componentType": 5125,
      "count": 252,
      "type": "SCALAR"
    },
    {
      "bufferView": 2,
      "byteOffset": 112560,
      "componentType": 5126,
      "count": 4746,
      "max": [
        8.860799789428711,
        1.9067000150680542,
        4.060299873352051
      ],
      "min": [
        -1.5614999532699585,
        -1.9067000150680542,
        0.01140000019222498
      ],
      "type": "VEC3"
    },
    {
      "bufferView": 2,
      "byteOffset": 169512,
      "componentType": 5126,
      "count": 4746,
      "max": [
        1.0,
        1.0,
        1.0
      ],
      "min": [
        -1.0,
        -1.0,
        -1.0
      ],
      "type": "VEC3"
    },
    {
      "bufferView": 1,
      "byteOffset": 37520,
      "componentType": 5126,
      "count": 4746,
      "max": [
        0.9961000084877014,
        0.9979000091552734
      ],
      "min": [
        0.0024999999441206455,
        0.0020000000949949026
      ],
      "type": "VEC2"
    },
    {
      "bufferView": 0,
      "byteOffset": 41004,
      "componentType": 5125,
      "count": 9999,
      "type": "SCALAR"
    },
    {
      "bufferView": 2,
      "byteOffset": 226464,
      "componentType": 5126,
      "count": 5528,
      "max": [
        8.840399742126465,
        1.8562999963760376,
        10.140600204467773
      ],
      "min": [
        -13.236200332641602,
        -1.9067000150680542,
        0.01140000019222498
      ],
      "type": "VEC3"
    },
    {
      "bufferView": 2,
      "byteOffset": 292800,
      "componentType": 5126,
      "count": 5528,
      "max": [
        1.0,
        1.0,
        1.0
      ],
      "min": [
        -1.0,
        -1.0,
        -1.0
      ],
      "type": "VEC3"
    },
    {
      "bufferView": 1,
      "byteOffset": 75488,
      "componentType": 5126,
      "count": 5528,
      "max": [
        0.9970999956130981,
        0.9955000281333923
      ],
      "min": [
        0.002899999963119626,
        0.001500000013038516
      ],
      "type": "VEC2"
    },
    {
      "bufferView": 0,
      "byteOffset": 81000,
      "componentType": 5125,
      "count": 9999,
      "type": "SCALAR"
    },
    {
      "bufferView": 2,
      "byteOffset": 359136,
      "componentType": 5126,
      "count": 4271,
      "max": [
        8.774900436401367,
        1.8459999561309814,
        11.024499893188477
      ],
      "min": [
        -13.230299949645996,
        -1.8459999561309814,
        0.01140000019222498
      ],
      "type": "VEC3"
    },
    {
      "bufferView": 2,
      "byteOffset": 410388,
      "componentType": 5126,
      "count": 4271,
      "max": [
        1.0,
        1.0,
        1.0
      ],
      "min": [
        -1.0,
        -1.0,
        -1.0
      ],
      "type": "VEC3"
    },
    {
      "bufferView": 1,
      "byteOffset": 119712,
      "componentType": 5126,
      "count": 4271,
      "max": [
        1.1190999746322632,
        0.9990000128746033
      ],
      "min": [
        0.002899999963119626,
        0.0020000000949949026
      ],
      "type": "VEC2"
    },
    {
      "bufferView": 0,
      "byteOffset": 120996,
      "componentType": 5125,
      "count": 9999,
      "type": "SCALAR"
    },
    {
      "bufferView": 2,
      "byteOffset": 461640,
      "componentType": 5126,
      "count": 423,
      "max": [
        -5.057600021362305,
        1.2760000228881836,
        9.456999778747559
      ],
      "min": [
        -13.230299949645996,
        -1.2869999408721924,
        3.2311999797821045
      ],
      "type": "VEC3"
    },
    {
      "bufferView": 2,
      "byteOffset": 466716,
      "componentType": 5126,
      "count": 423,
      "max": [
        0.9999916553497314,
        1.0,
        0.9999916553497314
      ],
      "min": [
        -0.9602304697036743,
        -1.0,
        -0.8660874366760254
      ],
      "type": "VEC3"
    },
    {
      "bufferView": 1,
      "byteOffset": 153880,
      "componentType": 5126,
      "count": 423,
      "max": [
        0.9761000275611877,
        0.9402999877929688
      ],
      "min": [
        0.003000000026077032,
        0.004900000058114529
      ],
      "type": "VEC2"
    },
    {
      "bufferView": 0,
      "byteOffset": 160992,
      "componentType": 5125,
      "count": 699,
      "type": "SCALAR"
    }
  ],
  "asset": {
    "extras": {
      "author": "Muhamad Mirza Arrafi (https://sketchfab.com/nazidefenseforceofficial)",
      "license": "CC-BY-4.0 (http://creativecommons.org/licenses/by/4.0/)",
      "source": "https://sketchfab.com/3d-models/mim-104-patriot-surface-to-air-missile-sam-7a64d0af78514a159877edab1ab2bccb",
      "title": "MIM-104 Patriot Surface-To-Air Missile (SAM)"
    },
    "generator": "Sketchfab-16.59.0",
    "version": "2.0"
  },
  "bufferViews": [
    {
      "buffer": 0,
      "byteLength": 163788,
      "name": "floatBufferViews",
      "target": 34963
    },
    {
      "buffer": 0,
      "byteLength": 157264,
      "byteOffset": 163788,
      "byteStride": 8,
      "name": "floatBufferViews",
      "target": 34962
    },
    {
      "buffer": 0,
      "byteLength": 471792,
      "byteOffset": 321052,
      "byteStride": 12,
      "name": "floatBufferViews",
      "target": 34962
    }
  ],
  "buffers": [
    {
      "byteLength": 792844,
      "uri": "scene.bin"
    }
  ],
  "images": [
    {
      "uri": "textures/01___Default_baseColor.png"
    },
    {
      "uri": "textures/02___Default_baseColor.png"
    }
  ],
  "materials": [
    {
      "doubleSided": true,
      "name": "01___Default",
      "pbrMetallicRoughness": {
        "baseColorTexture": {
          "index": 0
        },
        "metallicFactor": 0.0,
        "roughnessFactor": 0.4
      }
    },
    {
      "doubleSided": true,
      "name": "02___Default",
      "pbrMetallicRoughness": {
        "baseColorTexture": {
          "index": 1
        },
        "metallicFactor": 0.0,
        "roughnessFactor": 0.4
      }
    }
  ],
  "meshes": [
    {
      "name": "Object_0",
      "primitives": [
        {
          "attributes": {
            "NORMAL": 1,
            "POSITION": 0,
            "TEXCOORD_0": 2
          },
          "indices": 3,
          "material": 0,
          "mode": 4
        }
      ]
    },
    {
      "name": "Object_1",
      "primitives": [
        {
          "attributes": {
            "NORMAL": 5,
            "POSITION": 4,
            "TEXCOORD_0": 6
          },
          "indices": 7,
          "material": 0,
          "mode": 4
        }
      ]
    },
    {
      "name": "Object_2",
      "primitives": [
        {
          "attributes": {
            "NORMAL": 9,
            "POSITION": 8,
            "TEXCOORD_0": 10
          },
          "indices": 11,
          "material": 1,
          "mode": 4
        }
      ]
    },
    {
      "name": "Object_3",
      "primitives": [
        {
          "attributes": {
            "NORMAL": 13,
            "POSITION": 12,
            "TEXCOORD_0": 14
          },
          "indices": 15,
          "material": 1,
          "mode": 4
        }
      ]
    },
    {
      "name": "Object_4",
      "primitives": [
        {
          "attributes": {
            "NORMAL": 17,
            "POSITION": 16,
            "TEXCOORD_0": 18
          },
          "indices": 19,
          "material": 1,
          "mode": 4
        }
      ]
    },
    {
      "name": "Object_5",
      "primitives": [
        {
          "attributes": {
            "NORMAL": 21,
            "POSITION": 20,
            "TEXCOORD_0": 22
          },
          "indices": 23,
          "material": 1,
          "mode": 4
        }
      ]
    }
  ],
  "nodes": [
    {
      "children": [
        1
      ],
      "matrix": [
        1.0,
        0.0,
        0.0,
        0.0,
        0.0,
        2.220446049250313e-16,
        -1.0,
        0.0,
        0.0,
        1.0,
        2.220446049250313e-16,
        0.0,
        0.0,
        0.0,
        0.0,
        1.0
      ],
      "name": "Sketchfab_model"
    },
    {
      "children": [
        2,
        3,
        4,
        5,
        6,
        7
      ],
      "name": "MIM-104 Patriot Surface-To-Air Missile (SAM).obj.cleaner.materialmerger.gles"
    },
    {
      "mesh": 0,
      "name": "Object_2"
    },
    {
      "mesh": 1,
      "name": "Object_3"
    },
    {
      "mesh": 2,
      "name": "Object_4"
    },
    {
      "mesh": 3,
      "name": "Object_5"
    },
    {
      "mesh": 4,
      "name": "Object_6"
    },
    {
      "mesh": 5,
      "name": "Object_7"
    }
  ],
  "samplers": [
    {
      "magFilter": 9729,
      "minFilter": 9987,
      "wrapS": 10497,
      "wrapT": 10497
    }
  ],
  "scene": 0,
  "scenes": [
    {
      "name": "Sketchfab_Scene",
      "nodes": [
        0
      ]
    }
  ],
  "textures": [
    {
      "sampler": 0,
      "source": 0
    },
    {
      "sampler": 0,
      "source": 1
    }
  ]
}
