{
  "accessors": [
    {
      "bufferView": 2,
      "componentType": 5126,
      "count": 58941,
      "max": [
        2.33259654045105,
        4.571352005004883,
        3.603158712387085
      ],
      "min": [
        -1.805158257484436,
        -4.855074405670166,
        0.4410563111305237
      ],
      "type": "VEC3"
    },
    {
      "bufferView": 2,
      "byteOffset": 707292,
      "componentType": 5126,
      "count": 58941,
      "max": [
        1.0,
        0.9999976754188538,
        0.9999976754188538
      ],
      "min": [
        -1.0,
        -0.9999976754188538,
        -0.9999976754188538
      ],
      "type": "VEC3"
    },
    {
      "bufferView": 1,
      "componentType": 5126,
      "count": 58941,
      "max": [
        0.999875009059906,
        0.9952219724655151
      ],
      "min": [
        0.0003349999897181988,
        0.0003349999897181988
      ],
      "type": "VEC2"
    },
    {
      "bufferView": 0,
      "componentType": 5125,
      "count": 135693,
      "type": "SCALAR"
    },
    {
      "bufferView": 2,
      "byteOffset": 1414584,
      "componentType": 5126,
      "count": 12540,
      "max": [
        1.5979198217391968,
        2.4482812881469727,
        5.344822883605957
      ],
      "min": [
        -1.1742208003997803,
        -2.284874439239502,
        2.5389790534973145
      ],
      "type": "VEC3"
    },
    {
      "bufferView": 2,
      "byteOffset": 1565064,
      "componentType": 5126,
      "count": 12540,
      "max": [
        0.9999999403953552,
        0.999997615814209,
        0.999997615814209
      ],
      "min": [
        -0.9999999403953552,
        -0.999997615814209,
        -0.999997615814209
      ],
      "type": "VEC3"
    },
    {
      "bufferView": 1,
      "byteOffset": 471528,
      "componentType": 5126,
      "count": 12540,
      "max": [
        0.9902009963989258,
        0.9952219724655151
      ],
      "min": [
        0.0003349999897181988,
        0.0003349999897181988
      ],
      "type": "VEC2"
    },
    {
      "bufferView": 0,
      "byteOffset": 542772,
      "componentType": 5125,
      "count": 30018,
      "type": "SCALAR"
    },
    {
      "bufferView": 2,
      "byteOffset": 1715544,
      "componentType": 5126,
      "count": 53920,
      "max": [
        2.208919048309326,
        4.072709083557129,
        1.4260929822921753
      ],
      "min": [
        -1.7793289422988892,
        -4.195624351501465,
        -0.016723008826375008
      ],
      "type": "VEC3"
    },
    {
      "bufferView": 2,
      "byteOffset": 2362584,
      "componentType": 5126,
      "count": 53920,
      "max": [
        0.999997615814209,
        0.999997615814209,
        1.0
      ],
      "min": [
        -0.999997615814209,
        -0.999997615814209,
        -1.0
      ],
      "type": "VEC3"
    },
    {
      "bufferView": 1,
      "byteOffset": 571848,
      "componentType": 5126,
      "count": 53920,
      "max": [
        0.9995120167732239,
        0.9992169737815857
      ],
      "min": [
        0.0004879999905824661,
        0.0004879999905824661
      ],
      "type": "VEC2"
    },
    {
      "bufferView": 0,
      "byteOffset": 662844,
      "componentType": 5125,
      "count": 118464,
      "type": "SCALAR"
    },
    {
      "bufferView": 2,
      "byteOffset": 3009624,
      "componentType": 5126,
      "count": 408,
      "max": [
        2.088728427886963,
        4.4940314292907715,
        3.99796199798584
      ],
      "min": [
        -1.6594300270080566,
        -3.664184093475342,
        2.0897507667541504
      ],
      "type": "VEC3"
    },
    {
      "bufferView": 2,
      "byteOffset": 3014520,
      "componentType": 5126,
      "count": 408,
      "max": [
        1.0,
        0.999997615814209,
        0.999997615814209
      ],
      "min": [
        -1.0,
        -0.999997615814209,
        -0.999997615814209
      ],
      "type": "VEC3"
    },
    {
      "bufferView": 1,
      "byteOffset": 1003208,
      "componentType": 5126,
      "count": 408,
      "max": [
        0.9994990229606628,
        0.9978119730949402
      ],
      "min": [
        0.0005000000237487257,
        0.0005000000237487257
      ],
      "type": "VEC2"
    },
    {
      "bufferView": 0,
      "byteOffset": 1136700,
      "componentType": 5125,
      "count": 816,
      "type": "SCALAR"
    }
  ],
  "asset": {
    "extras": {
      "author": "Muhamad Mirza Arrafi (https://sketchfab.com/nazidefenseforceofficial)",
      "license": "CC-BY-4.0 (http://creativecommons.org/licenses/by/4.0/)",
      "source": "https://sketchfab.com/3d-models/type-625-anti-aircraft-gun-missile-system-8b7e85f45b954592bd4bb8e72cdd6312",
      "title": "Type-625 Anti Aircraft Gun Missile System"
    },
    "generator": "Sketchfab-16.59.0",
    "version": "2.0"
  },
  "bufferViews": [
    {
      "buffer": 0,
      "byteLength": 1139964,
      "name": "floatBufferViews",
      "target": 34963
    },
    {
      "buffer": 0,
      "byteLength": 1006472,
      "byteOffset": 1139964,
      "byteStride": 8,
      "name": "floatBufferViews",
      "target": 34962
    },
    {
      "buffer": 0,
      "byteLength": 3019416,
      "byteOffset": 2146436,
      "byteStride": 12,
      "name": "floatBufferViews",
      "target": 34962
    }
  ],
  "buffers": [
    {
      "byteLength": 5165852,
      "uri": "scene.bin"
    }
  ],
  "images": [
    {
      "uri": "textures/object_0_baseColor.jpeg"
    },
    {
      "uri": "textures/object_2_baseColor.jpeg"
    },
    {
      "uri": "textures/object_3_baseColor.jpeg"
    }
  ],
  "materials": [
    {
      "doubleSided": true,
      "name": "object_0",
      "pbrMetallicRoughness": {
        "baseColorTexture": {
          "index": 0
        },
        "metallicFactor": 0.0,
        "roughnessFactor": 0.4
      }
    },
    {
      "doubleSided": true,
      "name": "object_1",
      "pbrMetallicRoughness": {
        "baseColorTexture": {
          "index": 0
        },
        "metallicFactor": 0.0,
        "roughnessFactor": 0.4
      }
    },
    {
      "doubleSided": true,
      "name": "object_2",
      "pbrMetallicRoughness": {
        "baseColorTexture": {
          "index": 1
        },
        "metallicFactor": 0.0,
        "roughnessFactor": 0.6
      }
    },
    {
      "doubleSided": true,
      "name": "object_3",
      "pbrMetallicRoughness": {
        "baseColorTexture": {
          "index": 2
        },
        "metallicFactor": 0.0,
        "roughnessFactor": 0.291606472038772
      }
    }
  ],
  "meshes": [
    {
      "name": "Object_0",
      "primitives": [
        {
          "attributes": {
            "NORMAL": 1,
            "POSITION": 0,
            "TEXCOORD_0": 2
          },
          "indices": 3,
          "material": 0,
          "mode": 4
        }
      ]
    },
    {
      "name": "Object_1",
      "primitives": [
        {
          "attributes": {
            "NORMAL": 5,
            "POSITION": 4,
            "TEXCOORD_0": 6
          },
          "indices": 7,
          "material": 1,
          "mode": 4
        }
      ]
    },
    {
      "name": "Object_2",
      "primitives": [
        {
          "attributes": {
            "NORMAL": 9,
            "POSITION": 8,
            "TEXCOORD_0": 10
          },
          "indices": 11,
          "material": 2,
          "mode": 4
        }
      ]
    },
    {
      "name": "Object_3",
      "primitives": [
        {
          "attributes": {
            "NORMAL": 13,
            "POSITION": 12,
            "TEXCOORD_0": 14
          },
          "indices": 15,
          "material": 3,
          "mode": 4
        }
      ]
    }
  ],
  "nodes": [
    {
      "children": [
        1
      ],
      "matrix": [
        1.0,
        0.0,
        0.0,
        0.0,
        0.0,
        2.220446049250313e-16,
        -1.0,
        0.0,
        0.0,
        1.0,
        2.220446049250313e-16,
        0.0,
        0.0,
        0.0,
        0.0,
        1.0
      ],
      "name": "Sketchfab_model"
    },
    {
      "children": [
        2,
        3,
        4,
        5
      ],
      "name": "Type-625E AA Gun Missile System.obj.cleaner.materialmerger.gles"
    },
    {
      "mesh": 0,
      "name": "Object_2"
    },
    {
      "mesh": 1,
      "name": "Object_3"
    },
    {
      "mesh": 2,
      "name": "Object_4"
    },
    {
      "mesh": 3,
      "name": "Object_5"
    }
  ],
  "samplers": [
    {
      "magFilter": 9729,
      "minFilter": 9987,
      "wrapS": 10497,
      "wrapT": 10497
    }
  ],
  "scene": 0,
  "scenes": [
    {
      "name": "Sketchfab_Scene",
      "nodes": [
        0
      ]
    }
  ],
  "textures": [
    {
      "sampler": 0,
      "source": 0
    },
    {
      "sampler": 0,
      "source": 1
    },
    {
      "sampler": 0,
      "source": 2
    }
  ]
}
