{
  "accessors": [
    {
      "bufferView": 2,
      "componentType": 5126,
      "count": 14,
      "max": [
        -0.06694599986076355,
        0.08751200139522552,
        -0.11819200217723846
      ],
      "min": [
        -0.40422001481056213,
        -0.09793499857187271,
        -0.2213750034570694
      ],
      "type": "VEC3"
    },
    {
      "bufferView": 2,
      "byteOffset": 168,
      "componentType": 5126,
      "count": 14,
      "max": [
        0.0037142480723559856,
        0.9999287128448486,
        0.007019954267889261
      ],
      "min": [
        -0.11805640906095505,
        -0.9999735355377197,
        -0.016086425632238388
      ],
      "type": "VEC3"
    },
    {
      "bufferView": 1,
      "componentType": 5126,
      "count": 14,
      "max": [
        0.9965999722480774,
        0.989799976348877
      ],
      "min": [
        0.003599999938160181,
        0.46799999475479126
      ],
      "type": "VEC2"
    },
    {
      "bufferView": 0,
      "componentType": 5125,
      "count": 30,
      "type": "SCALAR"
    },
    {
      "bufferView": 2,
      "byteOffset": 336,
      "componentType": 5126,
      "count": 204,
      "max": [
        0.7542979717254639,
        0.2515699863433838,
        0.07783900201320648
      ],
      "min": [
        -0.12532199919223785,
        -0.2578180134296417,
        -0.09121699631214142
      ],
      "type": "VEC3"
    },
    {
      "bufferView": 2,
      "byteOffset": 2784,
      "componentType": 5126,
      "count": 204,
      "max": [
        0.9933843612670898,
        1.0,
        0.999972403049469
      ],
      "min": [
        -0.9898881316184998,
        -0.999995768070221,
        -0.9999719858169556
      ],
      "type": "VEC3"
    },
    {
      "bufferView": 1,
      "byteOffset": 112,
      "componentType": 5126,
      "count": 204,
      "max": [
        0.9868000149726868,
        0.994700014591217
      ],
      "min": [
        0.01679999940097332,
        0.01269999984651804
      ],
      "type": "VEC2"
    },
    {
      "bufferView": 0,
      "byteOffset": 120,
      "componentType": 5125,
      "count": 504,
      "type": "SCALAR"
    },
    {
      "bufferView": 2,
      "byteOffset": 5232,
      "componentType": 5126,
      "count": 8,
      "max": [
        0.006821000017225742,
        0.2488500028848648,
        -0.020109999924898148
      ],
      "min": [
        -0.07413499802350998,
        -0.2473510056734085,
        -0.03994100168347359
      ],
      "type": "VEC3"
    },
    {
      "bufferView": 2,
      "byteOffset": 5328,
      "componentType": 5126,
      "count": 8,
      "max": [
        0.00038032978773117065,
        0.9999955296516418,
        0.003994010854512453
      ],
      "min": [
        -0.00042354039032943547,
        -0.9999955296516418,
        -0.00398644246160984
      ],
      "type": "VEC3"
    },
    {
      "bufferView": 1,
      "byteOffset": 1744,
      "componentType": 5126,
      "count": 8,
      "max": [
        0.9993000030517578,
        1.014799952507019
      ],
      "min": [
        0.002300000051036477,
        0.012400000356137753
      ],
      "type": "VEC2"
    },
    {
      "bufferView": 0,
      "byteOffset": 2136,
      "componentType": 5125,
      "count": 12,
      "type": "SCALAR"
    },
    {
      "bufferView": 2,
      "byteOffset": 5424,
      "componentType": 5126,
      "count": 576,
      "max": [
        0.418612003326416,
        0.2782660126686096,
        -0.20248499512672424
      ],
      "min": [
        0.40805700421333313,
        -0.285631000995636,
        -0.2735620141029358
      ],
      "type": "VEC3"
    },
    {
      "bufferView": 2,
      "byteOffset": 12336,
      "componentType": 5126,
      "count": 576,
      "max": [
        0.9889980554580688,
        0.9485489726066589,
        0.9505623579025269
      ],
      "min": [
        0.3005492389202118,
        -0.9485862851142883,
        -0.9467750191688538
      ],
      "type": "VEC3"
    },
    {
      "bufferView": 1,
      "byteOffset": 1808,
      "componentType": 5126,
      "count": 576,
      "max": [
        0.9814000129699707,
        0.9814000129699707
      ],
      "min": [
        0.01860000006854534,
        0.01860000006854534
      ],
      "type": "VEC2"
    },
    {
      "bufferView": 0,
      "byteOffset": 2184,
      "componentType": 5125,
      "count": 3120,
      "type": "SCALAR"
    },
    {
      "bufferView": 2,
      "byteOffset": 19248,
      "componentType": 5126,
      "count": 4832,
      "max": [
        0.41728898882865906,
        0.285396009683609,
        -0.19484099745750427
      ],
      "min": [
        0.17884700000286102,
        -0.29286399483680725,
        -0.2822650074958801
      ],
      "type": "VEC3"
    },
    {
      "bufferView": 2,
      "byteOffset": 77232,
      "componentType": 5126,
      "count": 4832,
      "max": [
        1.0,
        1.0,
        0.9999754428863525
      ],
      "min": [
        -1.0,
        -1.0,
        -0.9999751448631287
      ],
      "type": "VEC3"
    },
    {
      "bufferView": 1,
      "byteOffset": 6416,
      "componentType": 5126,
      "count": 4832,
      "max": [
        0.995199978351593,
        0.9927999973297119
      ],
      "min": [
        0.002400000113993883,
        0.00930000003427267
      ],
      "type": "VEC2"
    },
    {
      "bufferView": 0,
      "byteOffset": 14664,
      "componentType": 5125,
      "count": 13488,
      "type": "SCALAR"
    },
    {
      "bufferView": 2,
      "byteOffset": 135216,
      "componentType": 5126,
      "count": 6218,
      "max": [
        0.7858899831771851,
        0.41359901428222656,
        0.3415670096874237
      ],
      "min": [
        0.13109900057315826,
        -0.4209200143814087,
        -0.24977600574493408
      ],
      "type": "VEC3"
    },
    {
      "bufferView": 2,
      "byteOffset": 209832,
      "componentType": 5126,
      "count": 6218,
      "max": [
        0.9999997615814209,
        0.9999992847442627,
        0.9999995827674866
      ],
      "min": [
        -1.0,
        -1.0,
        -0.9999982714653015
      ],
      "type": "VEC3"
    },
    {
      "bufferView": 1,
      "byteOffset": 45072,
      "componentType": 5126,
      "count": 6218,
      "max": [
        0.9998000264167786,
        0.9998000264167786
      ],
      "min": [
        0.0006000000284984708,
        0.002099999925121665
      ],
      "type": "VEC2"
    },
    {
      "bufferView": 0,
      "byteOffset": 68616,
      "componentType": 5125,
      "count": 13869,
      "type": "SCALAR"
    },
    {
      "bufferView": 2,
      "byteOffset": 284448,
      "componentType": 5126,
      "count": 12136,
      "max": [
        1.25,
        0.9792460203170776,
        0.19550199806690216
      ],
      "min": [
        -1.25,
        -0.9792460203170776,
        -0.3415670096874237
      ],
      "type": "VEC3"
    },
    {
      "bufferView": 2,
      "byteOffset": 430080,
      "componentType": 5126,
      "count": 12136,
      "max": [
        1.0,
        1.0,
        0.9999997615814209
      ],
      "min": [
        -1.0,
        -1.0,
        -1.0
      ],
      "type": "VEC3"
    },
    {
      "bufferView": 1,
      "byteOffset": 94816,
      "componentType": 5126,
      "count": 12136,
      "max": [
        0.9993000030517578,
        0.9998000264167786
      ],
      "min": [
        -2.140700101852417,
        -0.4104999899864197
      ],
      "type": "VEC2"
    },
    {
      "bufferView": 0,
      "byteOffset": 124092,
      "componentType": 5125,
      "count": 34623,
      "type": "SCALAR"
    }
  ],
  "asset": {
    "extras": {
      "author": "Muhamad Mirza Arrafi (https://sketchfab.com/nazidefenseforceofficial)",
      "license": "CC-BY-4.0 (http://creativecommons.org/licenses/by/4.0/)",
      "source": "https://sketchfab.com/3d-models/boeing-ah-64d-apache-combat-helicopter-c3b58008c46b45048fdd7dd283a3c8c8",
      "title": "Boeing AH-64D Apache Combat Helicopter"
    },
    "generator": "Sketchfab-16.64.0",
    "version": "2.0"
  },
  "bufferViews": [
    {
      "buffer": 0,
      "byteLength": 262584,
      "name": "floatBufferViews",
      "target": 34963
    },
    {
      "buffer": 0,
      "byteLength": 191904,
      "byteOffset": 262584,
      "byteStride": 8,
      "name": "floatBufferViews",
      "target": 34962
    },
    {
      "buffer": 0,
      "byteLength": 575712,
      "byteOffset": 454488,
      "byteStride": 12,
      "name": "floatBufferViews",
      "target": 34962
    }
  ],
  "buffers": [
    {
      "byteLength": 1030200,
      "uri": "scene.bin"
    }
  ],
  "extensionsUsed": [
    "KHR_materials_specular"
  ],
  "images": [
    {
      "uri": "textures/mat_0-Decal.jpg_baseColor.jpeg"
    },
    {
      "uri": "textures/mat_1-Glass.jpg_baseColor.jpeg"
    },
    {
      "uri": "textures/mat_1-Glass.jpg_metallicRoughness.png"
    },
    {
      "uri": "textures/mat_3-Alpha_2.jpg_baseColor.jpeg"
    },
    {
      "uri": "textures/mat_4-Missile_1.jpg_baseColor.jpeg"
    },
    {
      "uri": "textures/mat_5-Main_Body_1.jpg_baseColor.jpeg"
    },
    {
      "uri": "textures/mat_5-Main_Body_1.jpg_specularf0.png"
    },
    {
      "uri": "textures/mat_6-Main_Body_2.jpg_baseColor.jpeg"
    },
    {
      "uri": "textures/mat_6-Main_Body_2.jpg_specularf0.png"
    }
  ],
  "materials": [
    {
      "doubleSided": true,
      "name": "mat_0-Decal.jpg",
      "pbrMetallicRoughness": {
        "baseColorTexture": {
          "index": 0
        },
        "metallicFactor": 0.0,
        "roughnessFactor": 0.6
      }
    },
    {
      "doubleSided": true,
      "name": "mat_1-Glass.jpg",
      "pbrMetallicRoughness": {
        "baseColorTexture": {
          "index": 1
        },
        "metallicRoughnessTexture": {
          "index": 2
        },
        "roughnessFactor": 0.0
      }
    },
    {
      "doubleSided": true,
      "name": "mat_2-Alpha.jpg",
      "pbrMetallicRoughness": {
        "baseColorTexture": {
          "index": 0
        },
        "metallicFactor": 0.0,
        "roughnessFactor": 0.6
      }
    },
    {
      "doubleSided": true,
      "name": "mat_3-Alpha_2.jpg",
      "pbrMetallicRoughness": {
        "baseColorTexture": {
          "index": 3
        },
        "metallicFactor": 0.0,
        "roughnessFactor": 0.6
      }
    },
    {
      "doubleSided": true,
      "name": "mat_4-Missile_1.jpg",
      "pbrMetallicRoughness": {
        "baseColorTexture": {
          "index": 4
        },
        "metallicFactor": 0.0,
        "roughnessFactor": 0.6
      }
    },
    {
      "doubleSided": true,
      "extensions": {
        "KHR_materials_specular": {
          "specularColorFactor": [
            1.0,
            1.0,
            1.0
          ],
          "specularFactor": 1.0,
          "specularTexture": {
            "index": 6
          }
        }
      },
      "name": "mat_5-Main_Body_1.jpg",
      "pbrMetallicRoughness": {
        "baseColorTexture": {
          "index": 5
        },
        "metallicFactor": 0.0,
        "roughnessFactor": 0.30000000000000004
      }
    },
    {
      "doubleSided": true,
      "extensions": {
        "KHR_materials_specular": {
          "specularColorFactor": [
            1.0,
            1.0,
            1.0
          ],
          "specularFactor": 1.0,
          "specularTexture": {
            "index": 8
          }
        }
      },
      "name": "mat_6-Main_Body_2.jpg",
      "pbrMetallicRoughness": {
        "baseColorTexture": {
          "index": 7
        },
        "metallicFactor": 0.0,
        "roughnessFactor": 0.4
      }
    }
  ],
  "meshes": [
    {
      "name": "Object_0",
      "primitives": [
        {
          "attributes": {
            "NORMAL": 1,
            "POSITION": 0,
            "TEXCOORD_0": 2
          },
          "indices": 3,
          "material": 0,
          "mode": 4
        }
      ]
    },
    {
      "name": "Object_1",
      "primitives": [
        {
          "attributes": {
            "NORMAL": 5,
            "POSITION": 4,
            "TEXCOORD_0": 6
          },
          "indices": 7,
          "material": 1,
          "mode": 4
        }
      ]
    },
    {
      "name": "Object_2",
      "primitives": [
        {
          "attributes": {
            "NORMAL": 9,
            "POSITION": 8,
            "TEXCOORD_0": 10
          },
          "indices": 11,
          "material": 2,
          "mode": 4
        }
      ]
    },
    {
      "name": "Object_3",
      "primitives": [
        {
          "attributes": {
            "NORMAL": 13,
            "POSITION": 12,
            "TEXCOORD_0": 14
          },
          "indices": 15,
          "material": 3,
          "mode": 4
        }
      ]
    },
    {
      "name": "Object_4",
      "primitives": [
        {
          "attributes": {
            "NORMAL": 17,
            "POSITION": 16,
            "TEXCOORD_0": 18
          },
          "indices": 19,
          "material": 4,
          "mode": 4
        }
      ]
    },
    {
      "name": "Object_5",
      "primitives": [
        {
          "attributes": {
            "NORMAL": 21,
            "POSITION": 20,
            "TEXCOORD_0": 22
          },
          "indices": 23,
          "material": 5,
          "mode": 4
        }
      ]
    },
    {
      "name": "Object_6",
      "primitives": [
        {
          "attributes": {
            "NORMAL": 25,
            "POSITION": 24,
            "TEXCOORD_0": 26
          },
          "indices": 27,
          "material": 6,
          "mode": 4
        }
      ]
    }
  ],
  "nodes": [
    {
      "children": [
        1
      ],
      "matrix": [
        1.0,
        0.0,
        0.0,
        0.0,
        0.0,
        2.220446049250313e-16,
        -1.0,
        0.0,
        0.0,
        1.0,
        2.220446049250313e-16,
        0.0,
        0.0,
        0.0,
        0.0,
        1.0
      ],
      "name": "Sketchfab_model"
    },
    {
      "children": [
        2,
        3,
        4,
        5,
        6,
        7,
        8
      ],
      "name": "AH-64D Apache Combat Helicopter.obj.cleaner.materialmerger.gles"
    },
    {
      "mesh": 0,
      "name": "Object_2"
    },
    {
      "mesh": 1,
      "name": "Object_3"
    },
    {
      "mesh": 2,
      "name": "Object_4"
    },
    {
      "mesh": 3,
      "name": "Object_5"
    },
    {
      "mesh": 4,
      "name": "Object_6"
    },
    {
      "mesh": 5,
      "name": "Object_7"
    },
    {
      "mesh": 6,
      "name": "Object_8"
    }
  ],
  "samplers": [
    {
      "magFilter": 9729,
      "minFilter": 9987,
      "wrapS": 10497,
      "wrapT": 10497
    }
  ],
  "scene": 0,
  "scenes": [
    {
      "name": "Sketchfab_Scene",
      "nodes": [
        0
      ]
    }
  ],
  "textures": [
    {
      "sampler": 0,
      "source": 0
    },
    {
      "sampler": 0,
      "source": 1
    },
    {
      "sampler": 0,
      "source": 2
    },
    {
      "sampler": 0,
      "source": 3
    },
    {
      "sampler": 0,
      "source": 4
    },
    {
      "sampler": 0,
      "source": 5
    },
    {
      "sampler": 0,
      "source": 6
    },
    {
      "sampler": 0,
      "source": 7
    },
    {
      "sampler": 0,
      "source": 8
    }
  ]
}
